<svg width="350" height="350" viewBox="0 0 350 350" fill="none" xmlns="http://www.w3.org/2000/svg">
<path d="M246.777 71.7773V92.2852C246.777 98.0267 242.266 102.539 236.523 102.539C230.781 102.539 226.27 98.0267 226.27 92.2852V71.7773C226.27 43.4766 203.301 20.5078 175 20.5078C146.699 20.5078 123.73 43.4766 123.73 71.7773V92.2852C123.73 98.0267 119.219 102.539 113.477 102.539C107.734 102.539 103.223 98.0267 103.223 92.2852V71.7773C103.223 32.1973 135.42 0 175 0C214.58 0 246.777 32.1973 246.777 71.7773Z" fill="#16E1C6"/>
<path d="M246.777 71.7773V92.2852C246.777 98.0267 242.266 102.539 236.523 102.539C230.781 102.539 226.27 98.0267 226.27 92.2852V71.7773C226.27 43.4766 203.301 20.5078 175 20.5078V0C214.58 0 246.777 32.1973 246.777 71.7773Z" fill="#08D7BB"/>
<path d="M308.3 91.4642C307.889 86.1328 303.378 82.0312 298.046 82.0312H51.9524C46.6204 82.0312 42.1093 86.1328 41.6985 91.4642L23.0371 316.777C22.4212 325.185 25.2929 333.798 31.0344 340.156C36.9824 346.309 45.1842 350 53.7988 350H296.2C304.814 350 313.016 346.309 318.964 340.156C324.706 333.798 327.577 325.186 326.961 316.777L308.3 91.4642Z" fill="#ECECF1"/>
<path d="M326.962 316.777C327.578 325.185 324.706 333.798 318.965 340.156C313.017 346.309 304.815 350 296.2 350H175V82.0312H298.047C303.379 82.0312 307.89 86.1328 308.301 91.4642L326.962 316.777Z" fill="#CFDDE2"/>
<path d="M236.523 205.078H113.477C107.734 205.078 103.223 209.589 103.223 215.332V298.73C103.223 304.472 107.734 308.984 113.477 308.984H236.523C242.266 308.984 246.777 304.472 246.777 298.73V215.332C246.777 209.589 242.266 205.078 236.523 205.078Z" fill="#EC389E"/>
<path d="M246.777 215.332V298.73C246.777 304.472 242.266 308.984 236.523 308.984H175V205.078H236.523C242.266 205.078 246.777 209.589 246.777 215.332Z" fill="#C82D85"/>
<path d="M226.27 153.809C226.27 170.625 212.53 184.57 195.508 184.57H154.492C137.676 184.57 123.73 170.829 123.73 153.809C123.73 126.532 155.928 114.228 175 131.249C193.867 114.228 226.27 126.532 226.27 153.809Z" fill="#47EBD5"/>
<path d="M226.27 153.809C226.27 170.625 212.53 184.57 195.508 184.57H175V131.249C193.867 114.228 226.27 126.532 226.27 153.809Z" fill="#08D7BB"/>
<path d="M185.254 205.078H164.746V308.984H185.254V205.078Z" fill="#47EBD5"/>
<path d="M185.254 205.078H175V308.984H185.254V205.078Z" fill="#08D7BB"/>
<path d="M257.031 164.062H92.9688C87.2259 164.062 82.7148 168.574 82.7148 174.316V215.332C82.7148 221.074 87.2259 225.586 92.9688 225.586H257.031C262.774 225.586 267.285 221.074 267.285 215.332V174.316C267.285 168.574 262.774 164.062 257.031 164.062Z" fill="#E749A2"/>
<path d="M267.285 174.316V215.332C267.285 221.074 262.774 225.586 257.031 225.586H175V164.062H257.031C262.774 164.062 267.285 168.574 267.285 174.316Z" fill="#EC389E"/>
<path d="M185.254 164.062H164.746V225.586H185.254V164.062Z" fill="#08D7BB"/>
<path d="M185.254 164.062H175V225.586H185.254V164.062Z" fill="#08D7BB"/>
</svg>
