<svg width="512" height="512" viewBox="0 0 512 512" fill="none" xmlns="http://www.w3.org/2000/svg">
<g clip-path="url(#clip0)">
<path d="M512 255C512 263.399 505.401 270 497 270C488.599 270 482 263.399 482 255C482 192.9 456.799 136.8 416 96C375.2 55.199 319.1 30 257 30C248.599 30 242 23.399 242 15C242 6.599 248.599 0 257 0C327.201 0 391.099 28.5 437.3 74.7C483.5 120.899 512 184.799 512 255Z" fill="#1CEED2"/>
<path d="M452 255C452 263.399 445.401 270 437 270C428.599 270 422 263.399 422 255C422 209.399 403.4 168.3 373.7 138.3C343.7 108.6 302.6 90 257 90C248.599 90 242 83.399 242 75C242 66.599 248.599 60 257 60C310.699 60 359.599 81.899 394.701 117.299C430.101 152.399 452 201.299 452 255Z" fill="#1CEED2"/>
<path d="M392 255C392 263.399 385.401 270 377 270C368.599 270 362 263.399 362 255C362 226.199 350.3 199.799 331.099 180.899C312.201 161.7 285.801 150 257 150C248.599 150 242 143.399 242 135C242 126.599 248.599 120 257 120C294.2 120 327.8 135 352.4 159.6C377 184.2 392 217.8 392 255Z" fill="#1CEED2"/>
<path d="M332 255C332 263.399 325.401 270 317 270C308.599 270 302 263.399 302 255C302 242.399 296.901 231.299 288.8 223.2C280.699 215.099 269.6 210 257 210C248.599 210 242 203.399 242 195C242 186.599 248.599 180 257 180C277.7 180 296.6 188.399 310.101 201.899C323.599 215.4 332 234.3 332 255Z" fill="#1CEED2"/>
<path d="M196.904 102.986L133.315 39.397C116.337 22.419 86.4991 22.39 69.4921 39.397L58.7841 50.105L55.0891 88.782L135.595 169.055L186.225 177.178L186.238 177.323L196.831 166.882C196.86 166.867 196.875 166.838 196.904 166.809C214.497 149.217 214.497 120.579 196.904 102.986Z" fill="#C82D85"/>
<path d="M398.401 389.599L334.799 325.699L329.399 331.099L324.3 336.499C315.3 345.2 303.9 349.699 292.2 349.699C280.8 349.699 269.4 345.2 260.4 336.499L218.101 293.9L175.499 251.6C166.8 242.599 162.299 231.2 162.299 219.8C162.299 208.1 166.8 196.699 175.499 187.7L180.901 182.599L186.301 177.199L122.401 113.599L58.801 49.999L53.401 55.399L48.3 60.799C32.701 76.4 20.701 94.399 12.3 114.2C4.2 133.999 0 155.3 0 177.199C0 199.399 4.2 220.699 12.299 240.5C20.7 260.299 32.701 278.298 48.299 293.899L218.101 463.7C233.7 479.299 251.701 491.299 271.5 499.699C291.301 507.8 312.6 512 334.8 512C356.701 512 378 507.8 397.801 499.699C417.6 491.3 435.601 479.299 451.2 463.7L456.6 458.599L462.002 453.199L398.401 389.599Z" fill="#C82D85"/>
<path d="M334.819 325.773L341.982 375.44L422.512 456.204L461.894 453.216L472.602 442.508C481.098 434.012 485.771 422.689 485.771 410.604C485.771 398.504 481.098 387.181 472.602 378.7L409.013 315.096C391.42 297.503 362.797 297.489 345.117 315.169L334.702 325.738L334.819 325.773Z" fill="#E82F98"/>
<path d="M302 255C302 242.399 296.901 231.299 288.8 223.2L310.101 201.899C323.599 215.4 332 234.3 332 255C332 263.399 325.401 270 317 270C308.599 270 302 263.399 302 255Z" fill="#17CEB4"/>
<path d="M362 255C362 226.199 350.3 199.799 331.099 180.899L352.4 159.6C377 184.2 392 217.8 392 255C392 263.399 385.401 270 377 270C368.599 270 362 263.399 362 255Z" fill="#17CEB4"/>
<path d="M422 255C422 209.399 403.4 168.3 373.7 138.3L394.7 117.3C430.101 152.399 452 201.299 452 255C452 263.399 445.401 270 437 270C428.599 270 422 263.399 422 255Z" fill="#17CEB4"/>
<path d="M398.401 389.599L462.001 453.199L456.599 458.599L451.199 463.7C435.6 479.299 417.599 491.299 397.8 499.699C377.999 507.8 356.7 512 334.799 512C312.599 512 291.3 507.8 271.499 499.699C251.7 491.3 233.699 479.299 218.1 463.7L133.2 378.8L218.101 293.899L260.4 336.498C269.4 345.199 280.8 349.698 292.2 349.698C303.9 349.698 315.301 345.199 324.3 336.498L329.399 331.098L334.799 325.698L398.401 389.599Z" fill="#C82D85"/>
<path d="M512 255C512 263.399 505.401 270 497 270C488.599 270 482 263.399 482 255C482 192.9 456.799 136.8 416 96L437.3 74.7C483.5 120.899 512 184.799 512 255Z" fill="#17CEB4"/>
</g>
<defs>
<clipPath id="clip0">
<rect width="512" height="512" fill="white"/>
</clipPath>
</defs>
</svg>
