<svg width="512" height="512" viewBox="0 0 512 512" fill="none" xmlns="http://www.w3.org/2000/svg">
<path d="M512 347V407L492.499 437.599C463.7 439.699 440.6 462.199 437.6 490.7L407 512H105L74.099 487.099C69.9 461.898 49.799 442.099 24.6 437.899L0 407V347L27.599 315.799C50.399 310.7 68.699 292.7 73.5 269.6L105 242H407L437.601 264.2C440.901 290.9 461.601 311.899 487.7 316.099L512 347Z" fill="#66BD21"/>
<path d="M512 347V407L492.499 437.599C463.7 439.699 440.6 462.199 437.6 490.7L407 512H256V242H407L437.601 264.2C440.901 290.9 461.601 311.899 487.7 316.099L512 347Z" fill="#1DAA4C"/>
<path d="M436 30C444.284 30 451 23.2843 451 15C451 6.71573 444.284 0 436 0C427.716 0 421 6.71573 421 15C421 23.2843 427.716 30 436 30Z" fill="#FCBF29"/>
<path d="M352.899 90.3L317.199 72.299L299.5 36.899C294.401 26.7 277.899 26.7 272.8 36.899L256 69.899L254.801 72.3L219.401 90.301C214.3 92.699 211 97.8 211 103.5C211 109.2 214.3 114.6 219.401 116.999L254.801 134.7L256 137.1L272.8 170.4C275.201 175.499 280.3 178.501 286 178.501C291.7 178.501 297.1 175.5 299.5 170.4L317.199 134.7L352.899 116.999C358.001 114.6 361 109.2 361 103.5C361 97.8 358.001 92.699 352.899 90.3Z" fill="#FEDB41"/>
<path d="M105 512H15C6.709 512 0 505.291 0 497V407H15C64.629 407 105 447.371 105 497V512Z" fill="#78DE28"/>
<path d="M512 497C512 505.291 505.291 512 497 512H407V497C407 447.371 447.371 407 497 407H512V497Z" fill="#66BD21"/>
<path d="M497 347C447.371 347 407 306.629 407 257V242H497C505.291 242 512 248.709 512 257V347H497Z" fill="#66BD21"/>
<path d="M0 347V257C0 248.709 6.709 242 15 242H105V257C105 306.629 64.629 347 15 347H0Z" fill="#78DE28"/>
<path d="M256 242C198.1 242 151 302.599 151 377C151 451.399 198.1 512 256 512C313.9 512 361 451.399 361 377C361 302.599 313.9 242 256 242Z" fill="#78DE28"/>
<path d="M136 150H121V135C121 126.709 114.291 120 106 120C97.709 120 91 126.709 91 135V150H76C67.709 150 61 156.709 61 165C61 173.291 67.709 180 76 180H91V195C91 203.291 97.709 210 106 210C114.291 210 121 203.291 121 195V180H136C144.291 180 151 173.291 151 165C151 156.709 144.291 150 136 150Z" fill="#FEDB41"/>
<path d="M361 103.5C361 109.2 358.001 114.6 352.899 116.999L317.199 134.7L299.5 170.4C297.099 175.499 291.7 178.501 286 178.501C280.3 178.501 275.2 175.5 272.8 170.4L256 137.1V69.899L272.8 36.9C277.899 26.701 294.401 26.701 299.5 36.9L317.199 72.3L352.899 90.301C358.001 92.699 361 97.8 361 103.5Z" fill="#FCBF29"/>
<path d="M361 377C361 451.399 313.9 512 256 512V242C313.9 242 361 302.599 361 377Z" fill="#66BD21"/>
<path d="M301 407C301 425.9 288.999 442.7 271.3 449.299C266.201 451.099 261.099 452 256 452C240.7 452 225.7 444.5 213.701 429.8C208.299 423.499 209.2 414.199 215.501 408.8C221.8 403.4 231.1 404.299 236.5 410.6C242.801 418.1 249.7 422 256.001 422C257.801 422 259.601 421.7 261.1 421.099C267.1 418.999 271.001 413.299 271.001 407C271.001 398.599 264.402 392 256.001 392C231.1 392 211.001 371.899 211.001 347C211.001 328.999 221.801 312.499 238.6 305.6C244.3 303.199 250 302 256.001 302C268.901 301.7 282.101 307.4 293.201 318.199C299.201 323.899 299.201 333.499 293.501 339.5C287.801 345.501 278.201 345.5 272.2 339.8C266.8 334.398 261.1 331.699 256.001 332C253.901 332 252.101 332.3 250.301 333.199C244.6 335.6 241 341 241 347C241 355.399 247.599 362 256 362C280.901 362 301 382.099 301 407Z" fill="#FEDB41"/>
<path d="M301 407C301 425.9 288.999 442.7 271.3 449.299C266.201 451.099 261.099 452 256 452V422C257.8 422 259.6 421.7 261.099 421.099C267.099 418.999 271 413.299 271 407C271 398.599 264.401 392 256 392V362C280.901 362 301 382.099 301 407Z" fill="#FCBF29"/>
<path d="M272.199 339.8C266.799 334.398 261.099 331.699 256 332V302C268.9 301.7 282.1 307.4 293.2 318.199C299.2 323.899 299.2 333.499 293.5 339.5C287.8 345.501 278.2 345.5 272.199 339.8Z" fill="#FCBF29"/>
</svg>
