<svg width="512" height="512" viewBox="0 0 512 512" fill="none" xmlns="http://www.w3.org/2000/svg">
<g clip-path="url(#clip0)">
<path d="M415.534 259.599L366.934 241.898C365.434 241.299 363.634 240.999 361.835 240.999H50.4351C42.0341 240.999 35.4351 247.598 35.4351 255.999V466.999C35.4351 491.898 55.5341 511.999 80.4351 511.999H380.435C405.336 511.999 425.435 491.898 425.435 466.999V273.698C425.435 267.399 421.534 261.699 415.534 259.599Z" fill="#C82D85"/>
<path d="M425.435 273.698V466.999C425.435 491.898 405.336 511.999 380.435 511.999H230.435V240.999H361.835C363.635 240.999 365.435 241.299 366.934 241.898L415.534 259.599C421.534 261.699 425.435 267.399 425.435 273.698Z" fill="#C82D85"/>
<path d="M420.035 97.788C414.936 77.088 399.635 60.889 378.935 54.288C358.535 47.987 336.634 52.488 320.735 66.887L285.934 97.488L279.035 51.589C275.735 30.589 262.235 12.888 242.136 4.489C238.236 2.988 234.336 1.788 230.436 1.188C213.936 -2.112 196.836 1.488 183.035 11.689C164.735 24.889 155.436 47.089 158.435 69.288C161.736 91.488 176.736 110.388 198.035 117.888L230.436 129.588L270.336 144.288C270.636 144.288 270.636 144.288 270.636 144.288L339.936 169.787C346.835 172.188 354.035 173.389 360.935 173.389C375.637 173.389 390.036 167.987 401.436 157.788C418.235 142.788 425.435 119.687 420.035 97.788Z" fill="#65F6E3"/>
<path d="M401.435 157.788C390.035 167.987 375.635 173.389 360.934 173.389C354.035 173.389 346.835 172.188 339.935 169.787L270.635 144.288C270.635 144.288 270.635 144.288 270.335 144.288L230.435 129.588V1.187C234.335 1.788 238.235 2.987 242.135 4.488C262.234 12.887 275.735 30.588 279.034 51.588L285.933 97.487L320.734 66.886C336.633 52.487 358.534 47.986 378.934 54.287C399.634 60.888 414.934 77.087 420.034 97.787C425.435 119.687 418.235 142.788 401.435 157.788Z" fill="#08D7BB"/>
<path d="M476.735 234.098L456.335 290.498C453.934 296.498 448.234 300.098 442.234 300.098C440.434 300.098 438.634 299.798 437.135 299.199L282.034 242.799L267.935 196.299L230.435 204.698L197.436 212.198L42.3351 155.798C34.5351 152.799 30.6361 144.098 33.3351 136.598L54.0351 80.2C57.9351 68.8 66.3361 59.798 77.1361 54.699C87.9361 49.6 100.235 48.999 111.635 53.199L230.436 96.399L238.537 99.398C238.537 99.398 270.936 158.199 271.837 158.199C272.438 158.199 285.337 150.999 297.937 144.098C310.534 137.198 323.135 129.999 323.135 129.999L449.734 176.198C461.134 180.398 470.134 188.799 475.233 199.599C480.335 210.398 480.934 222.699 476.735 234.098Z" fill="#C82D85"/>
<path d="M476.735 234.098L456.335 290.498C453.934 296.498 448.234 300.098 442.234 300.098C440.434 300.098 438.634 299.798 437.135 299.199L282.034 242.799L267.935 196.299L230.435 204.698V96.399L238.536 99.398C238.536 99.398 270.935 158.199 271.836 158.199C272.437 158.199 285.336 150.999 297.936 144.098C310.534 137.198 323.135 129.999 323.135 129.999L449.734 176.198C461.134 180.398 470.134 188.799 475.233 199.599C480.335 210.398 480.934 222.699 476.735 234.098Z" fill="#C82D85"/>
<path d="M185.435 240.999V511.999H275.435V240.999H185.435Z" fill="#65F6E3"/>
<path d="M238.535 99.398L230.434 121.598L197.435 212.199L230.434 224.2L267.934 237.7L282.033 242.799L323.135 129.999L238.535 99.398Z" fill="#65F6E3"/>
<path d="M275.439 240.999H230.439V511.999H275.439V240.999Z" fill="#08D7BB"/>
<path d="M323.135 129.999L282.034 242.799L267.935 237.699L230.435 224.199V121.598L238.535 99.398L323.135 129.999Z" fill="#08D7BB"/>
</g>
<defs>
<clipPath id="clip0">
<rect width="511.999" height="511.999" fill="white"/>
</clipPath>
</defs>
</svg>
