<svg width="512" height="512" viewBox="0 0 512 512" fill="none" xmlns="http://www.w3.org/2000/svg">
<path d="M509.001 218L494.001 272L256 452L20.7 287L2.99902 218L62.4 128.599C65.4 124.399 69.901 122 75 122H437C442.099 122 446.6 124.399 449.599 128.599L509.001 218Z" fill="#C82D85"/>
<path d="M509.001 218L494.001 272L256 452V122H437C442.099 122 446.6 124.399 449.599 128.599L509.001 218Z" fill="#C82D85"/>
<path d="M437 0H75C66.599 0 60 6.599 60 15V452C60 460.399 66.599 467 75 467H437C445.401 467 452 460.399 452 452V15C452 6.599 445.401 0 437 0Z" fill="#65F7E3"/>
<path d="M452 15V452C452 460.399 445.401 467 437 467H256V0H437C445.401 0 452 6.599 452 15Z" fill="#08D7BB"/>
<path d="M509.48 218.68L509.017 217.986L341.714 342.714L347.236 403.294L446 494.706L507.5 507.5L507.61 507.61C510.323 504.896 512 501.146 512 497V227C512 226.504 510.656 220.444 509.48 218.68Z" fill="#C82D85"/>
<path d="M2.983 217.986L2.52 218.68C1.099 220.811 0 224.452 0 227V497C0 501.146 1.677 504.896 4.391 507.609L4.501 507.499L98.751 487.625L166.27 421.106L170.2 342.8L170.286 342.714L2.983 217.986Z" fill="#E22691"/>
<path d="M507.499 507.499C504.8 510.2 501.2 512 497 512H15C10.8 512 7.19998 510.2 4.50098 507.499L170.201 342.799L256 407L341.8 342.8L507.499 507.499Z" fill="#C82D85"/>
<path d="M507.499 507.499C504.8 510.2 501.2 512 497 512H256V407L341.8 342.8L507.499 507.499Z" fill="#C82D85"/>
<path d="M331 107C331 119.001 326.201 130.401 317.8 138.8H194.2C185.799 130.401 181 119.001 181 107C181 94.999 185.799 83.599 194.2 75.2C210.7 58.7 238.9 58.4 256 74.001C273.1 58.701 301.3 58.701 317.8 75.2C326.201 83.599 331 94.999 331 107Z" fill="#CFDDE2"/>
<path d="M317.8 138.8H256V74.001C273.1 58.701 301.3 58.701 317.8 75.2C326.201 83.599 331 94.999 331 107C331 119.001 326.201 130.401 317.8 138.8Z" fill="#EBEEEF"/>
<path d="M316 182H196C187.599 182 181 188.599 181 197V287C181 295.401 187.599 302 196 302H316C324.401 302 331 295.401 331 287V197C331 188.599 324.401 182 316 182Z" fill="#C82D85"/>
<path d="M346 122H166C157.599 122 151 128.599 151 137V197C151 205.401 157.599 212 166 212H346C354.401 212 361 205.401 361 197V137C361 128.599 354.401 122 346 122Z" fill="#C82D85"/>
<path d="M271 182H241V302H271V182Z" fill="#E4F0F4"/>
<path d="M331 197V287C331 295.401 324.401 302 316 302H256V182H316C324.401 182 331 188.599 331 197Z" fill="#C82D85"/>
<path d="M271 182H256V302H271V182Z" fill="#CFDDE2"/>
<path d="M361 137V197C361 205.401 354.401 212 346 212H256V122H346C354.401 122 361 128.599 361 137Z" fill="#C82D85"/>
<path d="M271 122H241V212H271V122Z" fill="#E4F0F4"/>
<path d="M271 122H256V212H271V122Z" fill="#E4F0F4"/>
</svg>
