<svg width="512" height="512" viewBox="0 0 512 512" fill="none" xmlns="http://www.w3.org/2000/svg">
<path d="M512 161.47V428.45C512 458.81 487.33 483.5 457.01 483.5H54.99C24.67 483.5 0 458.81 0 428.45V161.47L256.76 141.47L512 161.47Z" fill="#F4F1F1"/>
<path d="M512 161.47V428.45C512 458.81 487.33 483.5 457.01 483.5H256.76V141.47L512 161.47Z" fill="#E7DFDD"/>
<path d="M512 116.4V161.47H0V116.4C0 86.04 24.67 61.34 54.99 61.34H457.01C487.33 61.34 512 86.04 512 116.4Z" fill="#08D7BB"/>
<path d="M511.5 116.4V160.97H257.26V61.84H457.01C487.053 61.84 511.5 86.3155 511.5 116.4Z" fill="#C82D85" stroke="black"/>
<path d="M271.76 43.5V108.95C271.76 117.23 265.05 123.95 256.76 123.95C248.48 123.95 241.76 117.23 241.76 108.95V43.5C241.76 35.22 248.48 28.5 256.76 28.5C265.05 28.5 271.76 35.22 271.76 43.5Z" fill="#6C8C9B"/>
<path d="M429.659 28.505C421.375 28.505 414.659 35.221 414.659 43.505V108.95C414.659 117.234 421.375 123.95 429.659 123.95C437.943 123.95 444.659 117.234 444.659 108.95V43.505C444.659 35.221 437.943 28.505 429.659 28.505Z" fill="#6C8C9B"/>
<path d="M82.341 28.505C74.057 28.505 67.341 35.221 67.341 43.505V108.95C67.341 117.234 74.057 123.95 82.341 123.95C90.625 123.95 97.341 117.234 97.341 108.95V43.505C97.341 35.221 90.625 28.505 82.341 28.505Z" fill="#6C8C9B"/>
<path d="M342.83 28.622C334.546 28.622 327.83 35.338 327.83 43.622V109.067C327.83 117.351 334.546 124.067 342.83 124.067C351.114 124.067 357.83 117.351 357.83 109.067V43.622C357.83 35.338 351.114 28.622 342.83 28.622Z" fill="#6C8C9B"/>
<path d="M169.17 28.622C160.886 28.622 154.17 35.338 154.17 43.622V109.067C154.17 117.351 160.886 124.067 169.17 124.067C177.454 124.067 184.17 117.351 184.17 109.067V43.622C184.17 35.338 177.455 28.622 169.17 28.622Z" fill="#6C8C9B"/>
<path d="M110.267 211.762H80.865C72.581 211.762 65.865 218.478 65.865 226.762C65.865 235.046 72.581 241.762 80.865 241.762H110.267C118.551 241.762 125.267 235.046 125.267 226.762C125.267 218.478 118.551 211.762 110.267 211.762Z" fill="#6C8C9B"/>
<path d="M190.867 211.762H161.465C153.181 211.762 146.465 218.478 146.465 226.762C146.465 235.046 153.181 241.762 161.465 241.762H190.867C199.151 241.762 205.867 235.046 205.867 226.762C205.867 218.478 199.151 211.762 190.867 211.762Z" fill="#6C8C9B"/>
<path d="M286.47 226.76C286.47 235.05 279.75 241.76 271.47 241.76H242.06C233.78 241.76 227.06 235.05 227.06 226.76C227.06 218.48 233.78 211.76 242.06 211.76H271.47C279.75 211.76 286.47 218.48 286.47 226.76Z" fill="#6C8C9B"/>
<path d="M321.133 241.762H350.535C358.819 241.762 365.535 235.046 365.535 226.762C365.535 218.478 358.819 211.762 350.535 211.762H321.133C312.849 211.762 306.133 218.478 306.133 226.762C306.133 235.046 312.849 241.762 321.133 241.762Z" fill="#6C8C9B"/>
<path d="M401.733 241.762H431.135C439.419 241.762 446.135 235.046 446.135 226.762C446.135 218.478 439.419 211.762 431.135 211.762H401.733C393.449 211.762 386.733 218.478 386.733 226.762C386.733 235.046 393.449 241.762 401.733 241.762Z" fill="#6C8C9B"/>
<path d="M110.267 272.425H80.865C72.581 272.425 65.865 279.141 65.865 287.425C65.865 295.709 72.581 302.425 80.865 302.425H110.267C118.551 302.425 125.267 295.709 125.267 287.425C125.267 279.141 118.551 272.425 110.267 272.425Z" fill="#6C8C9B"/>
<path d="M190.867 272.425H161.465C153.181 272.425 146.465 279.141 146.465 287.425C146.465 295.709 153.181 302.425 161.465 302.425H190.867C199.151 302.425 205.867 295.709 205.867 287.425C205.867 279.141 199.151 272.425 190.867 272.425Z" fill="#6C8C9B"/>
<path d="M286.47 287.42C286.47 295.71 279.75 302.42 271.47 302.42H242.06C233.78 302.42 227.06 295.71 227.06 287.42C227.06 279.14 233.78 272.42 242.06 272.42H271.47C279.75 272.42 286.47 279.14 286.47 287.42Z" fill="#6C8C9B"/>
<path d="M110.267 332.796H80.865C72.581 332.796 65.865 339.512 65.865 347.796C65.865 356.08 72.581 362.796 80.865 362.796H110.267C118.551 362.796 125.267 356.08 125.267 347.796C125.267 339.512 118.551 332.796 110.267 332.796Z" fill="#6C8C9B"/>
<path d="M190.867 332.796H161.465C153.181 332.796 146.465 339.512 146.465 347.796C146.465 356.08 153.181 362.796 161.465 362.796H190.867C199.151 362.796 205.867 356.08 205.867 347.796C205.867 339.512 199.151 332.796 190.867 332.796Z" fill="#6C8C9B"/>
<path d="M286.47 347.8C286.47 356.08 279.75 362.8 271.47 362.8H242.06C233.78 362.8 227.06 356.08 227.06 347.8C227.06 339.51 233.78 332.8 242.06 332.8H271.47C279.75 332.8 286.47 339.51 286.47 347.8Z" fill="#6C8C9B"/>
<path d="M110.267 393.459H80.865C72.581 393.459 65.865 400.175 65.865 408.459C65.865 416.743 72.581 423.459 80.865 423.459H110.267C118.551 423.459 125.267 416.743 125.267 408.459C125.267 400.175 118.551 393.459 110.267 393.459Z" fill="#6C8C9B"/>
<path d="M190.867 393.459H161.465C153.181 393.459 146.465 400.175 146.465 408.459C146.465 416.743 153.181 423.459 161.465 423.459H190.867C199.151 423.459 205.867 416.743 205.867 408.459C205.867 400.175 199.151 393.459 190.867 393.459Z" fill="#6C8C9B"/>
<path d="M286.47 408.46C286.47 416.74 279.75 423.46 271.47 423.46H242.06C233.78 423.46 227.06 416.74 227.06 408.46C227.06 400.17 233.78 393.46 242.06 393.46H271.47C279.75 393.46 286.47 400.17 286.47 408.46Z" fill="#6C8C9B"/>
<path d="M321.133 302.425H350.535C358.819 302.425 365.535 295.709 365.535 287.425C365.535 279.141 358.819 272.425 350.535 272.425H321.133C312.849 272.425 306.133 279.141 306.133 287.425C306.133 295.709 312.849 302.425 321.133 302.425Z" fill="#6C8C9B"/>
<path d="M431.135 272.425H401.733C393.449 272.425 386.733 279.141 386.733 287.425C386.733 295.709 393.449 302.425 401.733 302.425H431.135C439.419 302.425 446.135 295.709 446.135 287.425C446.135 279.141 439.419 272.425 431.135 272.425Z" fill="#6C8C9B"/>
<path d="M321.133 335.296H431.135C439.143 335.296 445.635 341.788 445.635 349.796V408.459C445.635 416.467 439.143 422.959 431.135 422.959H321.133C313.125 422.959 306.633 416.467 306.633 408.459V349.796C306.633 341.788 313.125 335.296 321.133 335.296Z" fill="#C82D85" stroke="black"/>
<path d="M256.76 123.95V28.5C265.05 28.5 271.76 35.22 271.76 43.5V108.95C271.76 117.23 265.05 123.95 256.76 123.95Z" fill="#6C8C9B"/>
<path d="M286.47 408.46C286.47 416.74 279.75 423.46 271.47 423.46H256.76V393.46H271.47C279.75 393.46 286.47 400.17 286.47 408.46Z" fill="#6C8C9B"/>
<path d="M286.47 347.8C286.47 356.08 279.75 362.8 271.47 362.8H256.76V332.8H271.47C279.75 332.8 286.47 339.51 286.47 347.8Z" fill="#6C8C9B"/>
<path d="M286.47 287.42C286.47 295.71 279.75 302.42 271.47 302.42H256.76V272.42H271.47C279.75 272.42 286.47 279.14 286.47 287.42Z" fill="#6C8C9B"/>
<path d="M286.47 226.76C286.47 235.05 279.75 241.76 271.47 241.76H256.76V211.76H271.47C279.75 211.76 286.47 218.48 286.47 226.76Z" fill="#6C8C9B"/>
</svg>
