<svg width="512" height="512" viewBox="0 0 512 512" fill="none" xmlns="http://www.w3.org/2000/svg">
<path d="M436.976 181.004H76.9961C68.5951 181.004 61.9971 187.603 61.9971 196.003V376.993C61.9971 382.693 64.9961 387.792 70.0981 390.192L232.688 473.887C234.788 475.086 237.189 475.687 239.587 475.687C240.488 475.687 241.387 475.687 242.288 475.387L255.487 472.988L439.677 437.889C446.877 436.69 451.975 430.389 451.975 423.19V196.004C451.975 187.603 445.377 181.004 436.976 181.004Z" fill="#C82D85"/>
<path d="M451.975 196.004V423.19C451.975 430.39 446.876 436.689 439.677 437.889L255.487 472.988V181.004H436.976C445.377 181.004 451.975 187.603 451.975 196.004Z" fill="#C82D85"/>
<path d="M381.48 27.067C369.78 9.36901 350.581 -0.830994 328.082 0.0690056C306.782 1.26801 287.885 12.968 277.685 31.867L255.486 72.665L233.287 31.867C223.087 12.968 204.188 1.26801 182.59 0.0690056C160.991 -0.831994 141.192 9.36801 129.193 27.067C116.895 45.966 115.694 69.666 126.194 89.765C136.692 109.563 157.391 121.863 179.89 121.863H331.081C353.58 121.863 373.981 109.563 384.779 89.765C395.278 69.666 394.078 45.966 381.48 27.067Z" fill="#17CEB4"/>
<path d="M255.486 121.863V72.665L277.685 31.867C287.885 12.968 306.782 1.26801 328.082 0.0690056C350.581 -0.831994 369.78 9.36801 381.48 27.067C394.078 45.966 395.278 69.666 384.78 89.765C373.981 109.563 353.581 121.863 331.082 121.863H255.486Z" fill="#11AD94"/>
<path d="M436.976 91.009H76.996C52.096 91.009 31.998 111.107 31.998 136.007V196.004C31.998 204.403 38.597 211.003 46.997 211.003H466.974C475.375 211.003 481.973 204.402 481.973 196.004V136.007C481.974 111.108 461.876 91.009 436.976 91.009Z" fill="#C82D85"/>
<path d="M481.974 136.007V196.004C481.974 204.403 475.375 211.003 466.975 211.003H255.486V91.009H436.976C461.876 91.009 481.974 111.108 481.974 136.007Z" fill="#C82D85"/>
<path d="M211.988 91.009V462.789C211.988 470.89 217.988 477.488 226.086 477.788L255.485 479.888L286.082 481.988H286.983C290.883 481.988 294.483 480.488 297.183 478.088C300.182 475.087 301.982 471.189 301.982 466.989V91.009C301.983 91.009 211.988 91.009 211.988 91.009Z" fill="#1CEED2"/>
<path d="M301.983 91.009V466.988C301.983 471.188 300.183 475.087 297.184 478.087C294.483 480.488 290.883 481.987 286.984 481.987H286.083L255.486 479.887V91.009C255.486 91.009 301.983 91.009 301.983 91.009Z" fill="#17CEB4"/>
<path d="M502.972 373.993L430.975 469.988C411.177 496.387 379.978 511.987 346.98 511.987H183.189C137.893 511.987 92.896 503.586 50.897 484.688L61.395 349.096C96.494 289.698 173.589 279.8 221.287 322.096C226.987 326.895 230.886 331.996 238.386 331.996H331.981C348.48 331.996 361.979 345.495 361.979 361.994C361.979 378.493 348.48 391.992 331.981 391.992H226.988C218.587 391.992 211.989 398.591 211.989 406.991C211.989 415.39 218.588 421.99 226.988 421.99H356.882C369.48 421.99 381.481 416.889 389.879 407.59L463.976 328.095C477.474 313.697 500.273 317.895 508.674 333.795C515.272 346.094 511.371 362.893 502.972 373.993Z" fill="#FEDBAB"/>
<path d="M331.982 391.993H255.486V331.996H331.982C348.481 331.996 361.98 345.495 361.98 361.994C361.98 378.494 348.481 391.993 331.982 391.993Z" fill="#FEC478"/>
<path d="M502.972 373.993L430.975 469.988C411.177 496.387 379.978 511.987 346.98 511.987H255.485V421.992H356.879C369.477 421.992 381.478 416.891 389.876 407.592L463.973 328.097C477.471 313.699 500.27 317.897 508.671 333.797C515.272 346.094 511.371 362.893 502.972 373.993Z" fill="#FEC478"/>
<path d="M76.996 511.986H14.999C6.709 511.986 0 505.278 0 496.987V316.997C0 308.706 6.709 301.998 14.999 301.998H76.996C85.287 301.998 91.995 308.707 91.995 316.997V496.987C91.995 505.278 85.286 511.986 76.996 511.986Z" fill="#E82F98"/>
</svg>
