<svg width="512" height="512" viewBox="0 0 512 512" fill="none" xmlns="http://www.w3.org/2000/svg">
<path d="M181 106L46 151C87.422 151 121 184.578 121 226L166 301L241 331L286 301C308.423 256.178 316 196.357 316 177.752V106H181Z" fill="#FCAA99"/>
<path d="M286 301C308.423 256.178 316 196.357 316 177.752V106H196V301L241 331L286 301Z" fill="#FFB6A7"/>
<path d="M301 121H271C262.716 121 256 114.284 256 106L226 87.47L256 60C256 51.716 262.716 45 271 45H301C309.284 45 316 51.716 316 60V106C316 114.284 309.284 121 301 121Z" fill="#FFB6A7"/>
<path d="M241 121H211C202.716 121 196 114.284 196 106L166 65L196 45C196 36.716 202.716 30 211 30H241C249.284 30 256 36.716 256 45V106C256 114.284 249.284 121 241 121Z" fill="#FFB6A7"/>
<path d="M181 121H136L106 73.125L136 30C136 21.716 142.716 15 151 15H181C189.284 15 196 21.716 196 30V106C196 114.284 189.284 121 181 121Z" fill="#FFB6A7"/>
<path d="M136 121H76V15C76 6.716 82.716 0 91 0H121C129.284 0 136 6.716 136 15V121Z" fill="#FFB6A7"/>
<path d="M196 106C196 97.599 189.401 91 181 91H31C22.599 91 16 97.599 16 106V141.099C16 216.86 40.506 267.424 76 301L123.999 331L166 308.8V226C166 184.427 132.572 151 91 151H151C175.901 151 196 130.899 196 106Z" fill="#FFB6A7"/>
<path d="M196 301H76V497C76 505.284 82.716 512 91 512H196H271C279.284 512 286 505.284 286 497V301H196Z" fill="#0FE7C9"/>
<path d="M286 497V301H196V512H271C279.284 512 286 505.284 286 497Z" fill="#08D7BB"/>
<path d="M361 226L226 271C267.422 271 301 304.578 301 346L346 421L421 451L466 421C488.423 376.178 496 316.357 496 297.752V226H361Z" fill="#F89580"/>
<path d="M466 421C488.423 376.178 496 316.357 496 297.752V226H376V421L421 451L466 421Z" fill="#E87D6B"/>
<path d="M481 241H451C442.716 241 436 234.284 436 226L406 207.47L436 181C436 172.716 442.716 166 451 166H481C489.284 166 496 172.716 496 181V226C496 234.284 489.284 241 481 241Z" fill="#F89580"/>
<path d="M421 241H391C382.716 241 376 234.284 376 226L346 186L376 166C376 157.716 382.716 151 391 151H421C429.284 151 436 157.716 436 166V226C436 234.284 429.284 241 421 241Z" fill="#F89580"/>
<path d="M361 241H316L286 194.125L316 151C316 142.716 322.716 136 331 136H361C369.284 136 376 142.716 376 151V226C376 234.284 369.284 241 361 241Z" fill="#FFBFAB"/>
<path d="M316 241H256V136C256 127.716 262.716 121 271 121H301C309.284 121 316 127.716 316 136V241Z" fill="#FFBFAB"/>
<path d="M196 261.142V271H196.331C196.236 267.71 196 264.456 196 261.142Z" fill="black"/>
<path d="M376 226C376 217.599 369.401 211 361 211H211C202.599 211 196 217.599 196 226V261.099C196 336.86 220.506 387.424 256 421L303.999 451L346 428.8V346C346 304.427 312.572 271 271 271H331C355.901 271 376 250.899 376 226Z" fill="#FFD5CC"/>
<path d="M376 421H256V497C256 505.284 262.716 512 271 512H376H451C459.284 512 466 505.284 466 497V421H376Z" fill="#C82D85"/>
<path d="M466 497V421H376V512H451C459.284 512 466 505.284 466 497Z" fill="#D91283"/>
</svg>
