<svg width="512" height="512" viewBox="0 0 512 512" fill="none" xmlns="http://www.w3.org/2000/svg">
<path d="M406 316V346C406 354.401 399.401 361 391 361H271C262.599 361 256 354.401 256 346V316C256 274.6 289.6 241 331 241C351.7 241 370.6 249.401 384.101 262.899C397.599 276.4 406 295.3 406 316Z" fill="#1CEED2"/>
<path d="M376 196C376 220.901 355.901 241 331 241C306.099 241 286 220.901 286 196C286 171.099 306.099 151 331 151C355.901 151 376 171.099 376 196Z" fill="#1CEED2"/>
<path d="M406 316V346C406 354.401 399.401 361 391 361H331V241C351.7 241 370.6 249.401 384.101 262.899C397.599 276.4 406 295.3 406 316Z" fill="#08D7BB"/>
<path d="M376 196C376 220.901 355.901 241 331 241V151C355.901 151 376 171.099 376 196Z" fill="#08D7BB"/>
<path d="M256 316V346C256 354.401 249.401 361 241 361H121C112.599 361 106 354.401 106 346V316C106 274.6 139.6 241 181 241C201.7 241 220.6 249.401 234.101 262.899C247.599 276.4 256 295.3 256 316Z" fill="#1CEED2"/>
<path d="M226 196C226 220.901 205.901 241 181 241C156.099 241 136 220.901 136 196C136 171.099 156.099 151 181 151C205.901 151 226 171.099 226 196Z" fill="#1CEED2"/>
<path d="M256 316V346C256 354.401 249.401 361 241 361H181V241C201.7 241 220.6 249.401 234.101 262.899C247.599 276.4 256 295.3 256 316Z" fill="#08D7BB"/>
<path d="M226 196C226 220.901 205.901 241 181 241V151C205.901 151 226 171.099 226 196Z" fill="#08D7BB"/>
<path d="M181 466V497C181 505.401 174.401 512 166 512H46C37.599 512 31 505.401 31 497V466C31 424.6 64.6 391 106 391C126.7 391 145.6 399.401 159.101 412.899C172.599 426.4 181 445.3 181 466Z" fill="#EC67B3"/>
<path d="M151 346C151 370.901 130.901 391 106 391C81.099 391 61 370.901 61 346C61 321.099 81.099 301 106 301C130.901 301 151 321.099 151 346Z" fill="#EC67B3"/>
<path d="M181 466V497C181 505.401 174.401 512 166 512H106V391C126.7 391 145.6 399.401 159.101 412.899C172.599 426.4 181 445.3 181 466Z" fill="#F26DB9"/>
<path d="M151 346C151 370.901 130.901 391 106 391V301C130.901 301 151 321.099 151 346Z" fill="#F26DB9"/>
<path d="M331 466V497C331 505.401 324.401 512 316 512H196C187.599 512 181 505.401 181 497V466C181 424.6 214.6 391 256 391C276.7 391 295.6 399.401 309.101 412.899C322.599 426.4 331 445.3 331 466Z" fill="#EC67B3"/>
<path d="M301 346C301 370.901 280.901 391 256 391C231.099 391 211 370.901 211 346C211 321.099 231.099 301 256 301C280.901 301 301 321.099 301 346Z" fill="#EC67B3"/>
<path d="M331 466V497C331 505.401 324.401 512 316 512H256V391C276.7 391 295.6 399.401 309.101 412.899C322.599 426.4 331 445.3 331 466Z" fill="#F26DB9"/>
<path d="M301 346C301 370.901 280.901 391 256 391V301C280.901 301 301 321.099 301 346Z" fill="#F26DB9"/>
<path d="M481 466V497C481 505.401 474.401 512 466 512H346C337.599 512 331 505.401 331 497V466C331 424.6 364.6 391 406 391C426.7 391 445.6 399.401 459.101 412.899C472.599 426.4 481 445.3 481 466Z" fill="#EC67B3"/>
<path d="M451 346C451 370.901 430.901 391 406 391C381.099 391 361 370.901 361 346C361 321.099 381.099 301 406 301C430.901 301 451 321.099 451 346Z" fill="#EC67B3"/>
<path d="M481 466V497C481 505.401 474.401 512 466 512H406V391C426.7 391 445.6 399.401 459.101 412.899C472.599 426.4 481 445.3 481 466Z" fill="#F26DB9"/>
<path d="M451 346C451 370.901 430.901 391 406 391V301C430.901 301 451 321.099 451 346Z" fill="#F26DB9"/>
<path d="M293.8 0C277.3 0 264.401 7.5 256 17.1C247.599 7.5 234.699 0 218.2 0C188.8 0 166 25.3 166 56.499C166 94.299 203.2 118.6 246.7 156.4C249.699 158.801 252.4 160 256 160C259.6 160 263.5 158.801 266.499 156.4C304.6 123.401 346 96.7 346 56.499C346 25.3 323.2 0 293.8 0Z" fill="#EC67B3"/>
<path d="M346 56.499C346 96.7 304.6 123.401 266.499 156.4C263.5 158.801 259.6 160 256 160V17.1C264.401 7.5 277.301 0 293.8 0C323.2 0 346 25.3 346 56.499Z" fill="#F26DB9"/>
</svg>
