<svg width="512" height="512" viewBox="0 0 512 512" fill="none" xmlns="http://www.w3.org/2000/svg">
<path d="M510.398 188.315C497.86 163.238 490.837 137.958 484.046 113.511C475.863 84.0541 468.133 56.231 451.624 35.3965C432.752 11.5782 404.49 0 365.215 0C365.186 0 365.152 0 365.124 0C350.991 0.00599958 334.177 0.0119992 315.992 0.0159989C307.709 0.0179987 300.996 6.75253 300.996 15.0349C300.996 39.8462 280.81 60.0318 255.999 60.0318C231.188 60.0318 211.002 39.8462 211.002 15.0349C211.002 11.0562 209.421 7.24149 206.608 4.42869C203.796 1.61589 199.981 0.0349975 196.002 0.0359975H146.804C107.545 0.0369974 79.2454 11.7272 60.2868 35.7755C43.7569 56.742 35.9765 84.643 27.739 114.183C20.9655 138.474 13.962 163.592 1.60088 188.314C-1.28592 194.088 -0.153996 201.062 4.41068 205.627C26.2661 227.482 56.893 240.018 88.4378 240.018H106.011V497C106.011 505.283 112.726 511.999 121.009 511.999H390.991C399.274 511.999 405.989 505.283 405.989 497V240.018H423.562C455.107 240.018 485.734 227.483 507.589 205.627C512.154 201.063 513.286 194.089 510.398 188.315Z" fill="#ECECF1"/>
<path d="M390.991 512C399.274 512 405.989 505.284 405.989 497.001V240.019H423.562C455.107 240.019 485.734 227.484 507.589 205.628C512.154 201.063 513.286 194.088 510.399 188.315C497.861 163.238 490.839 137.958 484.047 113.511C475.864 84.0541 468.134 56.231 451.625 35.3965C432.752 11.5782 404.49 0 365.215 0C365.186 0 365.152 0 365.124 0C350.991 0.00599958 334.177 0.0119992 315.992 0.0159989C307.709 0.0179987 300.996 6.75253 300.996 15.0349C300.996 39.8462 280.81 60.0318 255.999 60.0318V512H390.991Z" fill="#CFDDE2"/>
<path d="M256 337.512C252.685 337.512 249.369 336.416 246.63 334.225C239.868 328.817 233.49 323.847 227.321 319.041C191.725 291.308 166.006 271.27 166.006 240.094C166.006 210.615 189.066 187.522 218.503 187.522C233.068 187.522 245.923 193.155 256 203.883C266.077 193.155 278.932 187.522 293.497 187.522C322.934 187.522 345.994 210.614 345.994 240.094C345.994 271.27 320.274 291.308 284.679 319.041C278.51 323.846 272.132 328.816 265.37 334.225C262.631 336.416 259.315 337.512 256 337.512Z" fill="#FC80C6"/>
<path d="M265.369 334.225C272.131 328.817 278.509 323.847 284.678 319.041C320.274 291.308 345.993 271.27 345.993 240.094C345.993 210.615 322.933 187.522 293.496 187.522C278.931 187.522 266.076 193.155 255.999 203.883V337.511C259.315 337.512 262.631 336.416 265.369 334.225Z" fill="#C82D85"/>
</svg>
