<svg width="700" height="700" fill="none" xmlns="http://www.w3.org/2000/svg">
  <circle cx="350" cy="350" r="350" fill="#E749A2" fill-opacity=".5"/>
  <path d="M455 185v30c0 8.399-6.599 15-15 15s-15-6.601-15-15v-30c0-41.4-33.6-75-75-75s-75 33.6-75 75v30c0 8.399-6.599 15-15 15s-15-6.601-15-15v-30c0-57.9 47.1-105 105-105s105 47.1 105 105z" fill="#16E1C6"/>
  <path d="M455 185v30c0 8.399-6.599 15-15 15s-15-6.601-15-15v-30c0-41.4-33.6-75-75-75V80c57.9 0 105 47.1 105 105z" fill="#08D7BB"/>
  <path d="M545 213.799C544.399 206 537.8 200 530 200H170c-7.8 0-14.399 6-15 13.799L127.701 543.4c-.901 12.299 3.3 24.899 11.699 34.199C148.101 586.6 160.099 592 172.701 592h354.598c12.601 0 24.6-5.4 33.301-14.401 8.399-9.3 12.599-21.899 11.699-34.199L545 213.799z" fill="#ECECF1"/>
  <path d="M572.299 543.4c.901 12.299-3.3 24.899-11.699 34.199C551.899 586.6 539.901 592 527.299 592H350V200h180c7.8 0 14.399 6 15 13.799L572.299 543.4z" fill="#CFDDE2"/>
  <path d="M440 380H260c-8.401 0-15 6.599-15 15v122c0 8.399 6.599 15 15 15h180c8.401 0 15-6.601 15-15V395c0-8.401-6.599-15-15-15z" fill="#EC389E"/>
  <path d="M455 395v122c0 8.399-6.599 15-15 15h-90V380h90c8.401 0 15 6.599 15 15z" fill="#C82D85"/>
  <path d="M425 305c0 24.6-20.099 45-45 45h-60c-24.6 0-45-20.101-45-45 0-39.901 47.1-57.9 75-33.001 27.599-24.899 75-6.9 75 33.001z" fill="#47EBD5"/>
  <path d="M425 305c0 24.6-20.099 45-45 45h-30v-78.001c27.599-24.899 75-6.9 75 33.001z" fill="#08D7BB"/>
  <path d="M365 380h-30v152h30V380z" fill="#47EBD5"/>
  <path d="M365 380h-15v152h15V380z" fill="#08D7BB"/>
  <path d="M470 320H230c-8.401 0-15 6.599-15 15v60c0 8.399 6.599 15 15 15h240c8.401 0 15-6.601 15-15v-60c0-8.401-6.599-15-15-15z" fill="#E749A2"/>
  <path d="M485 335v60c0 8.399-6.599 15-15 15H350v-90h120c8.401 0 15 6.599 15 15z" fill="#EC389E"/>
  <path d="M365 320h-30v90h30v-90z" fill="#08D7BB"/>
  <path d="M365 320h-15v90h15v-90z" fill="#08D7BB"/>
</svg>
