<svg width="512" height="512" viewBox="0 0 512 512" fill="none" xmlns="http://www.w3.org/2000/svg">
<g clip-path="url(#clip0)">
<path d="M466 181C441.186 181 421 160.814 421 136V15C421 6.709 414.291 0 406 0H346C342.016 0 338.207 1.582 335.395 4.395L256 83.789L176.605 4.395C173.793 1.582 169.984 0 166 0H106C97.709 0 91 6.709 91 15V136C91 160.814 70.814 181 46 181C37.709 181 31 187.709 31 196V497C31 505.291 37.709 512 46 512H256H466C474.291 512 481 505.291 481 497V196C481 187.709 474.291 181 466 181Z" fill="#ECECF1"/>
<path d="M481 497V196C481 187.709 474.291 181 466 181C441.186 181 421 160.814 421 136V15C421 6.709 414.291 0 406 0H346C342.016 0 338.207 1.582 335.395 4.395L256 83.789V512H466C474.291 512 481 505.291 481 497Z" fill="#CFDDE2"/>
<path d="M91 316V406C91 430.814 111.186 451 136 451H166C190.814 451 211 430.814 211 406V316H91Z" fill="#CFDDE2"/>
<path d="M293.5 143.5C278.935 143.5 266.078 149.134 256 159.862C245.922 149.134 233.065 143.5 218.5 143.5C189.061 143.5 166 166.594 166 196.076C166 227.253 191.721 247.292 227.318 275.027C233.488 279.834 239.867 284.804 246.63 290.214C249.369 292.405 252.685 293.501 256 293.501C259.315 293.501 262.631 292.405 265.37 290.214C272.133 284.804 278.512 279.834 284.682 275.027C320.279 247.292 346 227.253 346 196.076C346 166.594 322.939 143.5 293.5 143.5Z" fill="#F75AB3"/>
<path d="M265.37 290.213C272.133 284.803 278.512 279.833 284.682 275.026C320.279 247.292 346 227.253 346 196.076C346 166.594 322.939 143.5 293.5 143.5C278.935 143.5 266.078 149.134 256 159.862V293.5C259.315 293.5 262.631 292.404 265.37 290.213Z" fill="#C82D85"/>
<path d="M166 361H136C111.186 361 91 340.814 91 316V286C91 277.709 97.709 271 106 271H196C204.291 271 211 277.709 211 286V316C211 340.814 190.814 361 166 361Z" fill="#F6F6F6"/>
<path d="M301 316V406C301 430.814 321.186 451 346 451H376C400.814 451 421 430.814 421 406V316H301Z" fill="#F7F7F7"/>
<path d="M376 361H346C321.186 361 301 340.814 301 316V286C301 277.709 307.709 271 316 271H406C414.291 271 421 277.709 421 286V316C421 340.814 400.814 361 376 361Z" fill="#ECECF1"/>
</g>
<defs>
<clipPath id="clip0">
<rect width="512" height="512" fill="white"/>
</clipPath>
</defs>
</svg>
